<?xml version="1.0" standalone="no"?>
<!DOCTYPE svg PUBLIC "-//W3C//DTD SVG 1.1//EN"
  "http://www.w3.org/Graphics/SVG/1.1/DTD/svg11.dtd">
<svg version="1.1" xmlns="http://www.w3.org/2000/svg" width="1920" height="1080" viewBox="-1040.888888888889 -32 1889.7777777777778 1063" id="ccdiagram"><defs><style type="text/css">@import url(&#x27;https://fonts.googleapis.com/css?family=Open+Sans:400,700|Inconsolata:400&#x27;);</style></defs><g><g style="pointer-events:none"><g><pattern id="gridPatternMinor" x="0" y="37" width="128" height="74" patternUnits="userSpaceOnUse"><path d="M 0 0 L 128 74" stroke="#eee" stroke-width="1"></path><path d="M 128 0 L 0 74" stroke="#eee" stroke-width="1"></path></pattern><polygon points="0 0, 768 444, -192 999, -960 555" fill="url(#gridPatternMinor)"></polygon></g><polygon points="-960 555, -960 565, -192 1009, -192 999" stroke-linejoin="round" stroke="#54626f" stroke-width="1" fill="#f9f9f9"></polygon><polygon points="-192 1009, 768 454, 768 444, -192 999" stroke-linejoin="round" stroke="#54626f" stroke-width="1" fill="#e2e2e2"></polygon></g><g pointer-events="auto"><g opacity="1"><g><g><polygon points="32 19, 208 120, 208 120, 736 426, 736 463, 608 537, 544 537, -160 130, -160 93, -32 19" fill="#ffffff" stroke-width="2" stroke="#818181"></polygon><polygon points="0 37, 176 139, 704 444, 576 518, -128 111" fill="#e6e7e8" stroke-width="0" stroke="#818181"></polygon></g></g></g><g opacity="1"><g><g><polygon points="-160 130, 16 231, 16 231, 544 537, 544 574, 416 648, 352 648, -352 241, -352 204, -224 130" fill="#ffffff" stroke-width="2" stroke="#818181"></polygon><polygon points="-192 148, -16 250, 512 555, 384 629, -320 222" fill="#e6e7e8" stroke-width="0" stroke="#818181"></polygon></g></g></g><g opacity="1"><g><g><polygon points="-352 241, -176 342, -176 342, 352 648, 352 685, 224 759, 160 759, -544 352, -544 315, -416 241" fill="#ffffff" stroke-width="2" stroke="#818181"></polygon><polygon points="-384 259, -208 361, 320 666, 192 740, -512 333" fill="#e6e7e8" stroke-width="0" stroke="#818181"></polygon></g></g></g></g><g style="pointer-events:none"><g><pattern id="gridPatternMajor" x="0" y="37" width="128" height="74" patternUnits="userSpaceOnUse"><path d="M 64 0 L 128 37 64 74 0 37 z" stroke="#54626f" stroke-width="1" fill="none"></path></pattern><polygon points="0 0, 768 444, -192 999, -960 555" fill="url(#gridPatternMajor)"></polygon></g></g><g pointer-events="auto"></g><g></g><g pointer-events="auto"></g><g pointer-events="auto"></g><g pointer-events="none"></g><g pointer-events="auto"><g><g cursor="cell"><line x1="-128" y1="481" x2="22" y2="394" stroke="red" stroke-width="8" opacity="0"></line><line x1="-128" y1="481" x2="22" y2="394" stroke="#000000" stroke-width="2" stroke-linecap="round"></line><polygon points="32 389, 6 394, 20 396, 23 403, 32 389" stroke-linejoin="round" fill="#000000" stroke="#000000" stroke-width="1"></polygon></g></g><g><g cursor="cell"><line x1="240" y1="416" x2="320" y2="370" stroke="red" stroke-width="8" opacity="0"></line><line x1="240" y1="416" x2="320" y2="370" stroke="#000000" stroke-width="2" stroke-linecap="round"></line></g></g><g><g cursor="cell"><line x1="-364" y1="617" x2="-203" y2="524" stroke="red" stroke-width="8" opacity="0"></line><line x1="-364" y1="617" x2="-203" y2="524" stroke="#000000" stroke-width="2" stroke-linecap="round"></line><polygon points="-193 519, -219 524, -206 526, -203 533, -193 519" stroke-linejoin="round" fill="#000000" stroke="#000000" stroke-width="1"></polygon></g></g><g><g cursor="cell"><line x1="-238" y1="473" x2="-336" y2="416" stroke="red" stroke-width="8" opacity="0"></line><line x1="-238" y1="473" x2="-336" y2="416" stroke="#000000" stroke-width="2" stroke-linecap="round"></line></g></g><g><g cursor="cell"><line x1="-120" y1="541" x2="-48" y2="583" stroke="red" stroke-width="8" opacity="0"></line><line x1="-120" y1="541" x2="-48" y2="583" stroke="#000000" stroke-width="2" stroke-linecap="round"></line></g></g><g><g cursor="cell"><line x1="192" y1="296" x2="192" y2="156" stroke="red" stroke-width="8" opacity="0"></line><line x1="192" y1="296" x2="192" y2="156" stroke="#000000" stroke-width="2" stroke-linecap="round"></line><polygon points="192 148, 181 162, 192 158, 203 162, 192 148" stroke-linejoin="round" fill="#000000" stroke="#000000" stroke-width="1"></polygon></g></g><g><g cursor="cell"><line x1="-336" y1="416" x2="-138" y2="302" stroke="red" stroke-width="8" opacity="0"></line><line x1="-336" y1="416" x2="-138" y2="302" stroke="#000000" stroke-width="2" stroke-linecap="round"></line><polygon points="-128 296, -154 301, -140 303, -137 311, -128 296" stroke-linejoin="round" fill="#000000" stroke="#000000" stroke-width="1"></polygon></g></g><g><g cursor="cell"><line x1="272" y1="342" x2="195" y2="156" stroke="red" stroke-width="8" opacity="0"></line><line x1="272" y1="342" x2="195" y2="156" stroke="#000000" stroke-width="2" stroke-linecap="round"></line><polygon points="192 148, 187 163, 196 158, 209 160, 192 148" stroke-linejoin="round" fill="#000000" stroke="#000000" stroke-width="1"></polygon></g></g><g><g cursor="cell"><line x1="208" y1="379" x2="272" y2="342" stroke="red" stroke-width="8" opacity="0"></line><line x1="208" y1="379" x2="272" y2="342" stroke="#000000" stroke-width="2" stroke-linecap="round"></line></g></g><g><g cursor="cell"><line x1="320" y1="370" x2="335" y2="239" stroke="red" stroke-width="8" opacity="0"></line><line x1="320" y1="370" x2="335" y2="239" stroke="#000000" stroke-width="2" stroke-linecap="round"></line><polygon points="336 231, 323 245, 335 241, 346 246, 336 231" stroke-linejoin="round" fill="#000000" stroke="#000000" stroke-width="1"></polygon></g></g><g><g cursor="cell"><line x1="112" y1="342" x2="192" y2="296" stroke="red" stroke-width="8" opacity="0"></line><line x1="112" y1="342" x2="192" y2="296" stroke="#000000" stroke-width="2" stroke-linecap="round"></line></g></g><g><g cursor="cell"><line x1="240" y1="416" x2="208" y2="379" stroke="red" stroke-width="8" opacity="0"></line><line x1="240" y1="416" x2="208" y2="379" stroke="#000000" stroke-width="2" stroke-linecap="round"></line></g></g><g><g cursor="cell"><line x1="-48" y1="250" x2="118" y2="154" stroke="red" stroke-width="8" opacity="0"></line><line x1="-48" y1="250" x2="118" y2="154" stroke="#000000" stroke-width="2" stroke-linecap="round"></line><polygon points="128 148, 102 153, 116 155, 119 163, 128 148" stroke-linejoin="round" fill="#000000" stroke="#000000" stroke-width="1"></polygon></g></g><g><g cursor="cell"><line x1="-48" y1="583" x2="150" y2="468" stroke="red" stroke-width="8" opacity="0"></line><line x1="-48" y1="583" x2="150" y2="468" stroke="#000000" stroke-width="2" stroke-linecap="round"></line><polygon points="160 463, 134 468, 148 470, 151 477, 160 463" stroke-linejoin="round" fill="#000000" stroke="#000000" stroke-width="1"></polygon></g></g></g><g pointer-events="auto"><g opacity="1"><g id="eec1bbd4-88c0-4c14-ad26-47e051fdb090" transform="translate(0 0)"><svg x="114" y="7" height="148.981" width="91.956" viewBox="0 0 24.330047 39.417932"><g transform="translate(240.35 -115.335)"><path d="M-240.082 146.018v4.445l6.973 4.025v-4.445z" fill="#d2d2d4" fill-rule="evenodd"></path><path d="M-233.11 150.043l9.858-.003v4.445l-9.857.003z" fill="#d2d2d4" fill-rule="evenodd"></path><path d="M-223.252 150.04l6.967-4.027v4.445l-6.967 4.028z" fill="#b8b8bb" fill-rule="evenodd"></path><path d="M-223.252 150.04v4.445" fill="none" stroke="#83838a" stroke-width=".267"></path><path d="M302.99-2468.894l-36.732 47.87-59.823 7.876-47.87-36.732-7.875-59.823 36.732-47.87 59.822-7.876 47.87 36.732z" fill="#848586" stroke="#83838a" stroke-width="2.151" transform="matrix(.0995 .07485 -.12957 .05747 -573.282 269.258)"></path><path d="M-240.082 139.12v4.445l6.973 4.025v-4.445z" fill="#d2d2d4" fill-rule="evenodd"></path><path d="M-233.11 143.145l9.858-.003v4.445l-9.857.003z" fill="#d2d2d4" fill-rule="evenodd"></path><path d="M-223.252 143.143l6.967-4.028v4.445l-6.967 4.028z" fill="#b8b8bb" fill-rule="evenodd"></path><path d="M302.99-2468.894l-36.732 47.87-59.823 7.876-47.87-36.732-7.875-59.823 36.732-47.87 59.822-7.876 47.87 36.732z" fill="#848586" stroke="#83838a" stroke-width="2.151" transform="matrix(.0995 .07485 -.12957 .05747 -573.282 262.36)"></path><path d="M-240.082 132.222v4.445l6.973 4.025v-4.445z" fill="#d2d2d4" fill-rule="evenodd"></path><path d="M-233.11 136.247l9.858-.003v4.445l-9.857.003z" fill="#d2d2d4" fill-rule="evenodd"></path><path d="M-223.252 136.245l6.967-4.028v4.445l-6.967 4.028z" fill="#b8b8bb" fill-rule="evenodd"></path><path d="M302.99-2468.894l-36.732 47.87-59.823 7.876-47.87-36.732-7.875-59.823 36.732-47.87 59.822-7.876 47.87 36.732z" fill="#848586" stroke="#83838a" stroke-width="2.151" transform="matrix(.0995 .07485 -.12957 .05747 -573.282 255.462)"></path><path d="M-240.082 125.324v4.445l6.973 4.025v-4.445z" fill="#d2d2d4" fill-rule="evenodd"></path><path d="M-233.11 129.349l9.858-.003v4.445l-9.857.003z" fill="#d2d2d4" fill-rule="evenodd"></path><path d="M-223.252 129.347l6.967-4.028v4.445l-6.967 4.028z" fill="#b8b8bb" fill-rule="evenodd"></path><path d="M-223.252 129.347l-9.857.002-6.973-4.025-.003-5.694 6.967-4.028 9.857-.002 6.973 4.025.003 5.694z" fill="#ececed"></path><path d="M-240.082 125.324l6.964 4.074 9.866-.053 6.967-4.026M-233.118 129.398l.008 4.396M-223.252 129.345v4.445" fill="none" stroke="#83838a" stroke-width=".267"></path><path d="M-240.085 119.63l.003 10.139 6.972 4.025 9.857-.003 6.966-4.027-.002-10.14-6.972-4.025-9.857.003z" fill="none" stroke="#000000" stroke-width=".529"></path><path d="M-223.252 136.242v4.446M-233.11 136.247v4.445" fill="none" stroke="#83838a" stroke-width=".267"></path><path d="M-240.082 132.222v4.445l6.973 4.025 9.857-.003 6.966-4.027.002-4.446-6.968 4.026-9.865.054z" fill="none" stroke="#000000" stroke-width=".529"></path><path d="M-233.11 143.145v4.445M-223.252 143.141v4.446" fill="none" stroke="#83838a" stroke-width=".267"></path><path d="M-240.082 139.12v4.445l6.973 4.025 9.857-.003 6.966-4.026.002-4.446-6.968 4.028-9.857.003z" fill="none" stroke="#000000" stroke-width=".529"></path><path d="M-240.082 146.018v4.445l6.973 4.025 9.857-.003 6.967-4.026v-4.445l-6.967 4.026-9.857.003z" fill="none" stroke="#000000" stroke-width=".529"></path><path d="M-233.11 150.043v4.445" fill="none" stroke="#83838a" stroke-width=".267"></path><circle cx="-9.268" cy="254.217" fill="#4286c5" r="5.832" transform="scale(1.22475 .7071) rotate(45)"></circle><path d="M-227.78 122.24q.75.433 1.536.73.788.298 1.43.362l-.538.31q-.218.127-.73.046-.513-.08-1.181-.34-.669-.26-1.327-.64-.657-.38-1.108-.766-.45-.386-.59-.681-.138-.296.08-.422l.537-.31q.111.37.626.825.516.454 1.265.887zm-2.428 1.403q.749.432 1.536.73.788.297 1.43.361l-.538.31q-.218.127-.73.046-.513-.08-1.182-.34-.668-.26-1.326-.64-.657-.38-1.108-.766-.45-.386-.59-.681-.139-.296.08-.422l.537-.31q.11.37.626.825.516.454 1.265.887zm1.214-.701q.749.432 1.536.73.788.297 1.43.361l-.538.31q-.218.126-.73.046-.513-.08-1.181-.34-.669-.26-1.327-.64-.657-.38-1.108-.766-.45-.386-.59-.681-.138-.296.08-.422l.537-.31q.111.37.626.825.516.454 1.265.887zm3.642-2.103q.657.38 1.108.766.45.386.59.681.139.296-.08.422l-.404.234q-.218.126-.73.045-.513-.08-1.181-.34-.67-.26-1.327-.64-.657-.38-1.108-.766-.45-.386-.59-.681-.139-.296.08-.422l.404-.234q.218-.126.73-.045.513.08 1.182.34.668.26 1.326.64z" fill="#fff"></path></g></svg></g></g><g opacity="1"><g id="d5bae118-fe0e-4116-98f1-2fe2457c6717" transform="translate(0 0)"><svg x="258" y="90" height="148.981" width="91.956" viewBox="0 0 24.330047 39.417932"><g transform="translate(240.35 -115.335)"><path d="M-240.082 146.018v4.445l6.973 4.025v-4.445z" fill="#d2d2d4" fill-rule="evenodd"></path><path d="M-233.11 150.043l9.858-.003v4.445l-9.857.003z" fill="#d2d2d4" fill-rule="evenodd"></path><path d="M-223.252 150.04l6.967-4.027v4.445l-6.967 4.028z" fill="#b8b8bb" fill-rule="evenodd"></path><path d="M-223.252 150.04v4.445" fill="none" stroke="#83838a" stroke-width=".267"></path><path d="M302.99-2468.894l-36.732 47.87-59.823 7.876-47.87-36.732-7.875-59.823 36.732-47.87 59.822-7.876 47.87 36.732z" fill="#848586" stroke="#83838a" stroke-width="2.151" transform="matrix(.0995 .07485 -.12957 .05747 -573.282 269.258)"></path><path d="M-240.082 139.12v4.445l6.973 4.025v-4.445z" fill="#d2d2d4" fill-rule="evenodd"></path><path d="M-233.11 143.145l9.858-.003v4.445l-9.857.003z" fill="#d2d2d4" fill-rule="evenodd"></path><path d="M-223.252 143.143l6.967-4.028v4.445l-6.967 4.028z" fill="#b8b8bb" fill-rule="evenodd"></path><path d="M302.99-2468.894l-36.732 47.87-59.823 7.876-47.87-36.732-7.875-59.823 36.732-47.87 59.822-7.876 47.87 36.732z" fill="#848586" stroke="#83838a" stroke-width="2.151" transform="matrix(.0995 .07485 -.12957 .05747 -573.282 262.36)"></path><path d="M-240.082 132.222v4.445l6.973 4.025v-4.445z" fill="#d2d2d4" fill-rule="evenodd"></path><path d="M-233.11 136.247l9.858-.003v4.445l-9.857.003z" fill="#d2d2d4" fill-rule="evenodd"></path><path d="M-223.252 136.245l6.967-4.028v4.445l-6.967 4.028z" fill="#b8b8bb" fill-rule="evenodd"></path><path d="M302.99-2468.894l-36.732 47.87-59.823 7.876-47.87-36.732-7.875-59.823 36.732-47.87 59.822-7.876 47.87 36.732z" fill="#848586" stroke="#83838a" stroke-width="2.151" transform="matrix(.0995 .07485 -.12957 .05747 -573.282 255.462)"></path><path d="M-240.082 125.324v4.445l6.973 4.025v-4.445z" fill="#d2d2d4" fill-rule="evenodd"></path><path d="M-233.11 129.349l9.858-.003v4.445l-9.857.003z" fill="#d2d2d4" fill-rule="evenodd"></path><path d="M-223.252 129.347l6.967-4.028v4.445l-6.967 4.028z" fill="#b8b8bb" fill-rule="evenodd"></path><path d="M-223.252 129.347l-9.857.002-6.973-4.025-.003-5.694 6.967-4.028 9.857-.002 6.973 4.025.003 5.694z" fill="#ececed"></path><path d="M-240.082 125.324l6.964 4.074 9.866-.053 6.967-4.026M-233.118 129.398l.008 4.396M-223.252 129.345v4.445" fill="none" stroke="#83838a" stroke-width=".267"></path><path d="M-240.085 119.63l.003 10.139 6.972 4.025 9.857-.003 6.966-4.027-.002-10.14-6.972-4.025-9.857.003z" fill="none" stroke="#000000" stroke-width=".529"></path><path d="M-223.252 136.242v4.446M-233.11 136.247v4.445" fill="none" stroke="#83838a" stroke-width=".267"></path><path d="M-240.082 132.222v4.445l6.973 4.025 9.857-.003 6.966-4.027.002-4.446-6.968 4.026-9.865.054z" fill="none" stroke="#000000" stroke-width=".529"></path><path d="M-233.11 143.145v4.445M-223.252 143.141v4.446" fill="none" stroke="#83838a" stroke-width=".267"></path><path d="M-240.082 139.12v4.445l6.973 4.025 9.857-.003 6.966-4.026.002-4.446-6.968 4.028-9.857.003z" fill="none" stroke="#000000" stroke-width=".529"></path><path d="M-240.082 146.018v4.445l6.973 4.025 9.857-.003 6.967-4.026v-4.445l-6.967 4.026-9.857.003z" fill="none" stroke="#000000" stroke-width=".529"></path><path d="M-233.11 150.043v4.445" fill="none" stroke="#83838a" stroke-width=".267"></path><circle cx="-9.268" cy="254.217" fill="#4286c5" r="5.832" transform="scale(1.22475 .7071) rotate(45)"></circle><path d="M-227.78 122.24q.75.433 1.536.73.788.298 1.43.362l-.538.31q-.218.127-.73.046-.513-.08-1.181-.34-.669-.26-1.327-.64-.657-.38-1.108-.766-.45-.386-.59-.681-.138-.296.08-.422l.537-.31q.111.37.626.825.516.454 1.265.887zm-2.428 1.403q.749.432 1.536.73.788.297 1.43.361l-.538.31q-.218.127-.73.046-.513-.08-1.182-.34-.668-.26-1.326-.64-.657-.38-1.108-.766-.45-.386-.59-.681-.139-.296.08-.422l.537-.31q.11.37.626.825.516.454 1.265.887zm1.214-.701q.749.432 1.536.73.788.297 1.43.361l-.538.31q-.218.126-.73.046-.513-.08-1.181-.34-.669-.26-1.327-.64-.657-.38-1.108-.766-.45-.386-.59-.681-.138-.296.08-.422l.537-.31q.111.37.626.825.516.454 1.265.887zm3.642-2.103q.657.38 1.108.766.45.386.59.681.139.296-.08.422l-.404.234q-.218.126-.73.045-.513-.08-1.181-.34-.67-.26-1.327-.64-.657-.38-1.108-.766-.45-.386-.59-.681-.139-.296.08-.422l.404-.234q.218-.126.73-.045.513.08 1.182.34.668.26 1.326.64z" fill="#fff"></path></g></svg></g></g><g opacity="1"><g id="71cc3795-de14-49b3-909e-30d348807926" transform="translate(0 0)"><svg x="-144" y="192" height="113.438" width="96" viewBox="0 0 25.400052 30.013873"><g transform="translate(412.599 -86.957)"><path d="M-412.333 102.348v4.786l8.29 4.785h8.289l8.29-4.785v-4.786l-8.29-4.786h-8.29z" fill="#3c3c3c" fill-rule="evenodd"></path><path d="M-395.754 111.92l8.29-4.786v4.785l-8.29 4.786z" fill="#090909" fill-rule="evenodd"></path><path d="M-404.044 111.92h8.29v4.785h-8.29z" fill="#232323" fill-rule="evenodd"></path><path d="M-412.333 107.134v4.785l8.29 4.786v-4.786z" fill="#232323" fill-rule="evenodd"></path><path d="M-412.333 107.134l8.29 4.785h8.289l8.29-4.785M-404.044 111.92v4.785M-395.754 111.92v4.785" fill="none" stroke="#5e5e5e" stroke-width=".26588"></path><path d="M-412.333 102.348v9.571l8.29 4.786h8.289l8.29-4.786v-9.571l-8.29-4.786h-8.29z" fill="none" stroke="#000000" stroke-width=".53176"></path><path d="M-412.333 97.178v4.786l8.29 4.786h8.289l8.29-4.786v-4.786l-8.29-4.786h-8.29z" fill="#3c3c3c" fill-rule="evenodd"></path><path d="M-395.754 106.75l8.29-4.786v4.786l-8.29 4.786z" fill="#090909" fill-rule="evenodd"></path><path d="M-404.044 106.75h8.29v4.786h-8.29z" fill="#232323" fill-rule="evenodd"></path><path d="M-412.333 101.964v4.786l8.29 4.786v-4.786z" fill="#232323" fill-rule="evenodd"></path><path d="M-412.333 101.964l8.29 4.786h8.289l8.29-4.786M-404.044 106.75v4.786M-395.754 106.75v4.786" fill="none" stroke="#5e5e5e" stroke-width=".266"></path><path d="M-412.333 97.178v9.572l8.29 4.786h8.289l8.29-4.786v-9.572l-8.29-4.786h-8.29z" fill="none" stroke="#000000" stroke-width=".532"></path><path d="M-412.333 92.01v4.785l8.29 4.786h8.289l8.29-4.786v-4.786l-8.29-4.786h-8.29z" fill="#3c3c3c" fill-rule="evenodd"></path><path d="M-395.754 101.58l8.29-4.785v4.786l-8.29 4.786z" fill="#090909" fill-rule="evenodd"></path><path d="M-404.044 101.58h8.29v4.787h-8.29z" fill="#232323" fill-rule="evenodd"></path><path d="M-412.333 96.795v4.786l8.29 4.786v-4.786z" fill="#232323" fill-rule="evenodd"></path><path d="M-412.333 96.795l8.29 4.786h8.289l8.29-4.786M-404.044 101.58v4.787M-395.754 101.58v4.787" fill="none" stroke="#5e5e5e" stroke-width=".266"></path><path d="M-412.333 92.01v9.57l8.29 4.787h8.289l8.29-4.786v-9.572l-8.29-4.786h-8.29z" fill="none" stroke="#000000" stroke-width=".532"></path><circle cx="-136.478" cy="325.284" fill="#f4b934" r="5.801" transform="scale(1.22475 .7071) rotate(45)"></circle><g style="line-height:0%" font-family="sans-serif" font-size="3.191" stroke-width=".266"><path style="line-height:1.25;-inkscape-font-specification:&#x27;Droid Serif&#x27;" d="M-399.242 93.57l.48-.601q.222-.275.177-.448-.04-.17-.467-.416l-.507-.293 1.065-.614.937.541q.825.476.92.934.1.46-.417 1.114l-3.452 4.39-1.622-.937 1.654-2.121-3.729.923-1.622-.936z" fill="#fff" font-family="Droid Serif" font-size="9.971"></path></g></g></svg></g></g><g opacity="1"><g id="7cb9ac30-afe2-4aa1-ae0f-1d1776d71a89" transform="translate(0 0)"><svg x="16" y="284" height="113.438" width="96" viewBox="0 0 25.400052 30.013873"><g transform="translate(412.599 -86.957)"><path d="M-412.333 102.348v4.786l8.29 4.785h8.289l8.29-4.785v-4.786l-8.29-4.786h-8.29z" fill="#3c3c3c" fill-rule="evenodd"></path><path d="M-395.754 111.92l8.29-4.786v4.785l-8.29 4.786z" fill="#090909" fill-rule="evenodd"></path><path d="M-404.044 111.92h8.29v4.785h-8.29z" fill="#232323" fill-rule="evenodd"></path><path d="M-412.333 107.134v4.785l8.29 4.786v-4.786z" fill="#232323" fill-rule="evenodd"></path><path d="M-412.333 107.134l8.29 4.785h8.289l8.29-4.785M-404.044 111.92v4.785M-395.754 111.92v4.785" fill="none" stroke="#5e5e5e" stroke-width=".26588"></path><path d="M-412.333 102.348v9.571l8.29 4.786h8.289l8.29-4.786v-9.571l-8.29-4.786h-8.29z" fill="none" stroke="#000000" stroke-width=".53176"></path><path d="M-412.333 97.178v4.786l8.29 4.786h8.289l8.29-4.786v-4.786l-8.29-4.786h-8.29z" fill="#3c3c3c" fill-rule="evenodd"></path><path d="M-395.754 106.75l8.29-4.786v4.786l-8.29 4.786z" fill="#090909" fill-rule="evenodd"></path><path d="M-404.044 106.75h8.29v4.786h-8.29z" fill="#232323" fill-rule="evenodd"></path><path d="M-412.333 101.964v4.786l8.29 4.786v-4.786z" fill="#232323" fill-rule="evenodd"></path><path d="M-412.333 101.964l8.29 4.786h8.289l8.29-4.786M-404.044 106.75v4.786M-395.754 106.75v4.786" fill="none" stroke="#5e5e5e" stroke-width=".266"></path><path d="M-412.333 97.178v9.572l8.29 4.786h8.289l8.29-4.786v-9.572l-8.29-4.786h-8.29z" fill="none" stroke="#000000" stroke-width=".532"></path><path d="M-412.333 92.01v4.785l8.29 4.786h8.289l8.29-4.786v-4.786l-8.29-4.786h-8.29z" fill="#3c3c3c" fill-rule="evenodd"></path><path d="M-395.754 101.58l8.29-4.785v4.786l-8.29 4.786z" fill="#090909" fill-rule="evenodd"></path><path d="M-404.044 101.58h8.29v4.787h-8.29z" fill="#232323" fill-rule="evenodd"></path><path d="M-412.333 96.795v4.786l8.29 4.786v-4.786z" fill="#232323" fill-rule="evenodd"></path><path d="M-412.333 96.795l8.29 4.786h8.289l8.29-4.786M-404.044 101.58v4.787M-395.754 101.58v4.787" fill="none" stroke="#5e5e5e" stroke-width=".266"></path><path d="M-412.333 92.01v9.57l8.29 4.787h8.289l8.29-4.786v-9.572l-8.29-4.786h-8.29z" fill="none" stroke="#000000" stroke-width=".532"></path><circle cx="-136.478" cy="325.284" fill="#f4b934" r="5.801" transform="scale(1.22475 .7071) rotate(45)"></circle><g style="line-height:0%" font-family="sans-serif" font-size="3.191" stroke-width=".266"><path style="line-height:1.25;-inkscape-font-specification:&#x27;Droid Serif&#x27;" d="M-399.242 93.57l.48-.601q.222-.275.177-.448-.04-.17-.467-.416l-.507-.293 1.065-.614.937.541q.825.476.92.934.1.46-.417 1.114l-3.452 4.39-1.622-.937 1.654-2.121-3.729.923-1.622-.936z" fill="#fff" font-family="Droid Serif" font-size="9.971"></path></g></g></svg></g></g><g opacity="1"><g id="7353d28a-ec4c-4962-bad5-b4af7e9a4f28" transform="translate(0 0)"><svg x="144" y="358" height="113.438" width="96" viewBox="0 0 25.400052 30.013873"><g transform="translate(412.599 -86.957)"><path d="M-412.333 102.348v4.786l8.29 4.785h8.289l8.29-4.785v-4.786l-8.29-4.786h-8.29z" fill="#3c3c3c" fill-rule="evenodd"></path><path d="M-395.754 111.92l8.29-4.786v4.785l-8.29 4.786z" fill="#090909" fill-rule="evenodd"></path><path d="M-404.044 111.92h8.29v4.785h-8.29z" fill="#232323" fill-rule="evenodd"></path><path d="M-412.333 107.134v4.785l8.29 4.786v-4.786z" fill="#232323" fill-rule="evenodd"></path><path d="M-412.333 107.134l8.29 4.785h8.289l8.29-4.785M-404.044 111.92v4.785M-395.754 111.92v4.785" fill="none" stroke="#5e5e5e" stroke-width=".26588"></path><path d="M-412.333 102.348v9.571l8.29 4.786h8.289l8.29-4.786v-9.571l-8.29-4.786h-8.29z" fill="none" stroke="#000000" stroke-width=".53176"></path><path d="M-412.333 97.178v4.786l8.29 4.786h8.289l8.29-4.786v-4.786l-8.29-4.786h-8.29z" fill="#3c3c3c" fill-rule="evenodd"></path><path d="M-395.754 106.75l8.29-4.786v4.786l-8.29 4.786z" fill="#090909" fill-rule="evenodd"></path><path d="M-404.044 106.75h8.29v4.786h-8.29z" fill="#232323" fill-rule="evenodd"></path><path d="M-412.333 101.964v4.786l8.29 4.786v-4.786z" fill="#232323" fill-rule="evenodd"></path><path d="M-412.333 101.964l8.29 4.786h8.289l8.29-4.786M-404.044 106.75v4.786M-395.754 106.75v4.786" fill="none" stroke="#5e5e5e" stroke-width=".266"></path><path d="M-412.333 97.178v9.572l8.29 4.786h8.289l8.29-4.786v-9.572l-8.29-4.786h-8.29z" fill="none" stroke="#000000" stroke-width=".532"></path><path d="M-412.333 92.01v4.785l8.29 4.786h8.289l8.29-4.786v-4.786l-8.29-4.786h-8.29z" fill="#3c3c3c" fill-rule="evenodd"></path><path d="M-395.754 101.58l8.29-4.785v4.786l-8.29 4.786z" fill="#090909" fill-rule="evenodd"></path><path d="M-404.044 101.58h8.29v4.787h-8.29z" fill="#232323" fill-rule="evenodd"></path><path d="M-412.333 96.795v4.786l8.29 4.786v-4.786z" fill="#232323" fill-rule="evenodd"></path><path d="M-412.333 96.795l8.29 4.786h8.289l8.29-4.786M-404.044 101.58v4.787M-395.754 101.58v4.787" fill="none" stroke="#5e5e5e" stroke-width=".266"></path><path d="M-412.333 92.01v9.57l8.29 4.787h8.289l8.29-4.786v-9.572l-8.29-4.786h-8.29z" fill="none" stroke="#000000" stroke-width=".532"></path><circle cx="-136.478" cy="325.284" fill="#f4b934" r="5.801" transform="scale(1.22475 .7071) rotate(45)"></circle><g style="line-height:0%" font-family="sans-serif" font-size="3.191" stroke-width=".266"><path style="line-height:1.25;-inkscape-font-specification:&#x27;Droid Serif&#x27;" d="M-399.242 93.57l.48-.601q.222-.275.177-.448-.04-.17-.467-.416l-.507-.293 1.065-.614.937.541q.825.476.92.934.1.46-.417 1.114l-3.452 4.39-1.622-.937 1.654-2.121-3.729.923-1.622-.936z" fill="#fff" font-family="Droid Serif" font-size="9.971"></path></g></g></svg></g></g><g opacity="1"><g id="ab6891d8-743b-424d-ae23-05722105d8bc" transform="translate(0 0)"><svg x="-238" y="437" height="108.05" width="123" viewBox="0 0 32.543749 28.588253"><path d="M10.115 6.02v14.218l7.873-4.318V1.474z" fill="#090909" fill-rule="evenodd" stroke="#5e5e5e" stroke-width=".268"></path><path d="M.265 2.228l9.85 3.791v14.219l-9.85-8.531z" fill="#232323" fill-rule="evenodd" stroke="#5e5e5e" stroke-width=".265"></path><path d="M10.115 6.02l7.873-4.546L3.548.332.265 2.228z" fill="#3c3c3c" fill-rule="evenodd" stroke="#5e5e5e" stroke-width=".265"></path><path d="M.265 11.707l9.85 8.53 7.873-4.317V1.474L3.392.271.265 2.076z" fill="none" stroke="#000000" stroke-width=".529"></path><path d="M22.429 3.65L14.22 8.39l14.828 10.397 3.231-1.866z" fill="#3c3c3c" fill-rule="evenodd" stroke="#5e5e5e" stroke-width=".268"></path><path d="M14.22 8.39V22.61l14.777 5.687.051-9.509z" fill="#232323" fill-rule="evenodd" stroke="#5e5e5e" stroke-width=".265"></path><path d="M29.048 18.787l3.231-1.866V26.4l-3.282 1.897z" fill="#090909" fill-rule="evenodd" stroke="#5e5e5e" stroke-width=".265"></path><path d="M22.429 3.65L14.22 8.39V22.61l14.777 5.687 3.282-1.897v-9.478z" fill="none" stroke="#000000" stroke-width=".529"></path><path d="M21.09 20.43q.163.375.048.64t-.44.265q-.326 0-.671-.265-.346-.265-.509-.64-.162-.374-.047-.639t.44-.265q.326 0 .671.265.346.265.509.64zm1.573-1.808q.08.184.022.318-.059.134-.218.134-.16 0-.335-.134-.176-.135-.255-.318-.082-.187-.024-.32.058-.132.22-.132.163 0 .336.132.173.133.254.32zm1.573 3.617q.08.184.021.318-.058.134-.218.134t-.335-.134q-.175-.135-.255-.318-.081-.187-.023-.32.057-.132.22-.132t.335.132q.173.133.255.32zm-1.826-1.487l-.284-.654q-.016-.035-.052-.068-.036-.034-.065-.038l-.513-.084q-.088-.124-.215-.269.03-.17.1-.406.006-.035-.01-.07-.018-.043-.05-.068-.117-.106-.39-.316-.275-.21-.333-.21-.034 0-.054.025l-.215.317q-.143-.067-.284-.11-.2-.38-.309-.547-.058-.085-.129-.085h-.571q-.034 0-.05.027-.016.026-.004.062l.164.54q-.089.036-.182.11l-.5-.315q-.032-.024-.071-.024-.034 0-.053.028-.238.47-.196.565.014.032.05.067.053.05.208.187.155.138.238.216-.003.155.018.29l-.43.084q-.029.004-.038.034-.008.03.008.069l.285.653q.015.036.051.069.036.033.065.037l.513.085q.088.124.215.268-.03.17-.1.407-.005.038.01.07.018.043.052.07.113.107.388.315.275.208.333.209.034 0 .054-.025l.215-.318q.132.064.286.113.2.382.307.544.058.085.129.085h.571q.034 0 .05-.027.016-.026.004-.062l-.164-.54q.089-.035.183-.11l.499.315q.035.024.072.024.033 0 .052-.028.238-.47.196-.565-.014-.032-.05-.067-.062-.057-.212-.19-.15-.135-.23-.213-.004-.169-.022-.29l.431-.08q.028-.007.036-.038.008-.03-.008-.068zm1.147-1.883l-.215-.494q-.025-.057-.505-.11-.079-.095-.172-.183-.017-.4-.056-.488-.006-.014-.023-.024-.483-.251-.49-.251-.024 0-.069.166-.044.166-.055.24-.064-.007-.095-.007t-.09.007q-.075-.074-.264-.24-.188-.166-.213-.166-.006 0-.272.25-.008.011-.002.025.039.088.369.488-.017.088-.012.183-.435.053-.41.11l.215.494q.024.057.505.11.084.102.172.184.017.399.055.487.006.014.023.025l.138.07.234.12q.11.057.117.057.024 0 .07-.164.045-.164.056-.239.064.007.095.007.03 0 .089-.007.266.251.455.396l.021.007q.012 0 .273-.247.008-.01.002-.025-.038-.088-.368-.487.017-.082.012-.184.435-.053.41-.11zm1.572 3.617l-.215-.494q-.024-.057-.505-.11-.078-.095-.172-.184-.017-.399-.055-.487-.006-.014-.023-.025-.484-.25-.49-.25-.025 0-.069.165-.044.166-.055.24-.065-.006-.096-.006-.03 0-.089.007-.075-.075-.264-.24-.189-.166-.213-.166-.006 0-.272.25-.008.01-.002.025.038.088.369.487-.017.088-.013.184-.434.053-.41.11l.215.494q.025.057.505.11.085.102.173.183.016.4.055.488.006.014.023.024l.138.07.233.121q.111.057.117.057.025 0 .07-.165.045-.164.056-.238.065.007.095.007.031 0 .09-.007.265.25.454.396l.022.007q.012 0 .273-.248.008-.01.002-.024-.038-.088-.369-.488.017-.08.013-.183.434-.053.41-.11z" fill="#f4b934"></path></svg></g></g><g opacity="1"><g id="6c6f6ef3-4ceb-4aa1-b55e-038974c8e354" transform="translate(0 0)"><svg x="-424" y="552" height="95.068" width="63" viewBox="0 0 16.669 25.153"><path d="M16.668 22.903q0 1.64-.864 2.091-.865.451-2.297-.376L3.161 18.645q-1.433-.827-2.297-2.276Q.001 14.921 0 13.28q0-.723.042-1.39.042-.666.166-1.394.124-.727.313-1.302.19-.575.51-1.039.319-.464.733-.683.414-.22 1.012-.147.598.073 1.32.49.107.06.497.58.391.52.882 1.165.491.646 1.279 1.394.788.75 1.58 1.207.793.458 1.58.618.788.161 1.28.083.49-.079.881-.147.39-.069.497-.007.722.416 1.32 1.035.598.619 1.013 1.315.414.697.734 1.531t.509 1.627q.19.793.313 1.664.124.872.166 1.586.042.713.042 1.438zM12.88 8.51q0 2.173-1.332 2.942-1.332.769-3.214-.318-1.882-1.086-3.214-3.393Q3.79 5.434 3.79 3.26q0-2.173 1.331-2.942 1.332-.77 3.214.317t3.214 3.394q1.332 2.306 1.332 4.48z" fill="#000000"></path></svg></g></g></g><g pointer-events="auto"></g><g pointer-events="auto"><g opacity="1"><g id="6a0e4954-ee69-4373-90d3-549c535fa384" transform="translate(0 0)"><svg x="-336" y="583" overflow="visible"><g transform="scale(2.1836601342771385) matrix(0.707 0.409 -0.707 0.409 0 0)"><svg width="14" height="32" x="-7" y="-16" style="fill:#000000"><svg xmlns="http://www.w3.org/2000/svg" width="14" height="32" viewBox="0 0 14 32"><path d="M8.286 25.143c0-.786-.643-1.429-1.429-1.429s-1.429.643-1.429 1.429.643 1.429 1.429 1.429 1.429-.643 1.429-1.429zM12 22.286V9.715a.587.587 0 0 0-.571-.571H2.286a.587.587 0 0 0-.571.571v12.571c0 .304.268.571.571.571h9.143a.587.587 0 0 0 .571-.571zM8.571 7.143a.282.282 0 0 0-.286-.286H5.428c-.161 0-.286.125-.286.286s.125.286.286.286h2.857a.282.282 0 0 0 .286-.286zm5.143-.286v18.286a2.302 2.302 0 0 1-2.286 2.286H2.285a2.302 2.302 0 0 1-2.286-2.286V6.857a2.302 2.302 0 0 1 2.286-2.286h9.143a2.302 2.302 0 0 1 2.286 2.286z"/></svg></svg></g></svg></g></g></g><g pointer-events="auto"><g opacity="1"><g id="5a4038ad-9ffb-43fe-9ec9-8b53d0bea1ca" transform="translate(0 0)"><svg x="64" y="611" overflow="visible"><text stroke="#ffffff" stroke-width="4" font-family="Open Sans" y="25.099999999999998" font-size="15pt" fill="#f5b720" font-weight="bold" transform="matrix(0.707 0.409 -0.707 0.409 0 0)" xml:space="preserve"><tspan x="8" dy="0">Amazon</tspan></text><text font-family="Open Sans" y="25.099999999999998" font-size="15pt" fill="#f5b720" font-weight="bold" transform="matrix(0.707 0.409 -0.707 0.409 0 0)" xml:space="preserve"><tspan x="8" dy="0">Amazon</tspan></text></svg></g></g><g opacity="1"><g id="d791999d-da0b-4136-97f4-38274797c165" transform="translate(0 0)"><svg x="48" y="620" overflow="visible"><text stroke="#ffffff" stroke-width="4" font-family="Open Sans" y="36.5" font-size="25pt" fill="#f5b720" font-weight="bold" transform="matrix(0.707 0.409 -0.707 0.409 0 0)" xml:space="preserve"><tspan x="8" dy="0">API Gateway</tspan></text><text font-family="Open Sans" y="36.5" font-size="25pt" fill="#f5b720" font-weight="bold" transform="matrix(0.707 0.409 -0.707 0.409 0 0)" xml:space="preserve"><tspan x="8" dy="0">API Gateway</tspan></text></svg></g></g><g opacity="1"><g id="d67cac59-1f17-4202-8f43-03f639a29970" transform="translate(0 0)"><svg x="272" y="490" overflow="visible"><text stroke="#ffffff" stroke-width="4" font-family="Open Sans" y="25.099999999999998" font-size="15pt" fill="#f5b720" font-weight="bold" transform="matrix(0.707 0.409 -0.707 0.409 0 0)" xml:space="preserve"><tspan x="8" dy="0">AWS</tspan></text><text font-family="Open Sans" y="25.099999999999998" font-size="15pt" fill="#f5b720" font-weight="bold" transform="matrix(0.707 0.409 -0.707 0.409 0 0)" xml:space="preserve"><tspan x="8" dy="0">AWS</tspan></text></svg></g></g><g opacity="1"><g id="ae5a6e5f-9e7c-49fa-a462-ddaf7cd91631" transform="translate(0 0)"><svg x="256" y="500" overflow="visible"><text stroke="#ffffff" stroke-width="4" font-family="Open Sans" y="36.5" font-size="25pt" fill="#f5b720" font-weight="bold" transform="matrix(0.707 0.409 -0.707 0.409 0 0)" xml:space="preserve"><tspan x="8" dy="0">Lambda</tspan></text><text font-family="Open Sans" y="36.5" font-size="25pt" fill="#f5b720" font-weight="bold" transform="matrix(0.707 0.409 -0.707 0.409 0 0)" xml:space="preserve"><tspan x="8" dy="0">Lambda</tspan></text></svg></g></g><g opacity="1"><g id="10c849af-a7fd-473b-9821-64bfc8a4f2f7" transform="translate(0 0)"><svg x="-304" y="416" overflow="visible"><text stroke="#ffffff" stroke-width="4" font-family="Open Sans" y="25.099999999999998" font-size="15pt" fill="#000000" font-weight="bold" transform="matrix(0.707 -0.409 0.707 0.409 0 0)" xml:space="preserve"><tspan x="8" dy="0">GET: Order(id)</tspan></text><text font-family="Open Sans" y="25.099999999999998" font-size="15pt" fill="#000000" font-weight="bold" transform="matrix(0.707 -0.409 0.707 0.409 0 0)" xml:space="preserve"><tspan x="8" dy="0">GET: Order(id)</tspan></text></svg></g></g><g opacity="1"><g id="3206aa97-d5d3-46bb-aa6d-4580d53922b6" transform="translate(0 0)"><svg x="464" y="361" overflow="visible"><text stroke="#ffffff" stroke-width="4" font-family="Open Sans" y="25.099999999999998" font-size="15pt" fill="#f5b720" font-weight="bold" transform="matrix(0.707 0.409 -0.707 0.409 0 0)" xml:space="preserve"><tspan x="8" dy="0">Amazon</tspan></text><text font-family="Open Sans" y="25.099999999999998" font-size="15pt" fill="#f5b720" font-weight="bold" transform="matrix(0.707 0.409 -0.707 0.409 0 0)" xml:space="preserve"><tspan x="8" dy="0">Amazon</tspan></text></svg></g></g><g opacity="1"><g id="2545263e-3d5e-4c39-91d5-124bb832842b" transform="translate(0 0)"><svg x="448" y="370" overflow="visible"><text stroke="#ffffff" stroke-width="4" font-family="Open Sans" y="36.5" font-size="25pt" fill="#f5b720" font-weight="bold" transform="matrix(0.707 0.409 -0.707 0.409 0 0)" xml:space="preserve"><tspan x="8" dy="0">DynamoDB</tspan></text><text font-family="Open Sans" y="36.5" font-size="25pt" fill="#f5b720" font-weight="bold" transform="matrix(0.707 0.409 -0.707 0.409 0 0)" xml:space="preserve"><tspan x="8" dy="0">DynamoDB</tspan></text></svg></g></g><g opacity="1"><g id="d0d53931-190a-44a3-bad0-b2c296446d13" transform="translate(0 0)"><svg x="-192" y="463" overflow="visible"><text stroke="#ffffff" stroke-width="4" font-family="Open Sans" y="25.099999999999998" font-size="15pt" fill="#000000" font-weight="bold" transform="matrix(0.707 -0.409 0.707 0.409 0 0)" xml:space="preserve"><tspan x="8" dy="0">POST: Order({})</tspan></text><text font-family="Open Sans" y="25.099999999999998" font-size="15pt" fill="#000000" font-weight="bold" transform="matrix(0.707 -0.409 0.707 0.409 0 0)" xml:space="preserve"><tspan x="8" dy="0">POST: Order({})</tspan></text></svg></g></g><g opacity="1"><g id="d05b0108-8afd-4826-beb2-0c8720a66dcc" transform="translate(0 0)"><svg x="-64" y="537" overflow="visible"><text stroke="#ffffff" stroke-width="4" font-family="Open Sans" y="25.099999999999998" font-size="15pt" fill="#000000" font-weight="bold" transform="matrix(0.707 -0.409 0.707 0.409 0 0)" xml:space="preserve"><tspan x="8" dy="0">POST: graphQL</tspan></text><text font-family="Open Sans" y="25.099999999999998" font-size="15pt" fill="#000000" font-weight="bold" transform="matrix(0.707 -0.409 0.707 0.409 0 0)" xml:space="preserve"><tspan x="8" dy="0">POST: graphQL</tspan></text></svg></g></g><g opacity="1"><g id="36196c09-1b6a-47ec-b657-104f92ec7e70"><svg x="80" y="139" overflow="visible"><text stroke="#ffffff" stroke-width="4" font-family="Open Sans" y="36.5" font-size="25pt" fill="#000000" font-weight="bold" transform="matrix(0.707 0.409 -0.707 0.409 0 0)" xml:space="preserve"><tspan x="8" dy="0">Orders</tspan><tspan x="8" dy="1.1em"> </tspan></text><text font-family="Open Sans" y="36.5" font-size="25pt" fill="#000000" font-weight="bold" transform="matrix(0.707 0.409 -0.707 0.409 0 0)" xml:space="preserve"><tspan x="8" dy="0">Orders</tspan><tspan x="8" dy="1.1em"> </tspan></text></svg></g></g><g opacity="1"><g id="9371b9c9-dd30-45d3-a103-9c0142bd02fd"><svg x="256" y="241" overflow="visible"><text stroke="#ffffff" stroke-width="4" font-family="Open Sans" y="36.5" font-size="25pt" fill="#000000" font-weight="bold" transform="matrix(0.707 0.409 -0.707 0.409 0 0)" xml:space="preserve"><tspan x="8" dy="0">Users</tspan></text><text font-family="Open Sans" y="36.5" font-size="25pt" fill="#000000" font-weight="bold" transform="matrix(0.707 0.409 -0.707 0.409 0 0)" xml:space="preserve"><tspan x="8" dy="0">Users</tspan></text></svg></g></g></g></g></svg>